<?xml version="1.0" standalone="no"?>
<!DOCTYPE svg PUBLIC "-//W3C//DTD SVG 20010904//EN"
 "http://www.w3.org/TR/2001/REC-SVG-20010904/DTD/svg10.dtd">
<svg version="1.0" xmlns="http://www.w3.org/2000/svg"
 width="512.000000pt" height="512.000000pt" viewBox="0 0 512.000000 512.000000"
 preserveAspectRatio="xMidYMid meet">
<metadata>
Created by potrace 1.11, written by Peter Selinger 2001-2013
</metadata>
<g transform="translate(0.000000,512.000000) scale(0.100000,-0.100000)"
fill="#000000" stroke="none">
<path d="M755 2558 l0 -2103 572 -3 572 -2 0 851 c1 469 3 855 7 858 3 3 300
6 660 7 l654 0 0 -858 0 -858 572 2 572 3 0 2100 0 2100 -572 3 -572 2 0 -780
0 -780 -660 0 -660 0 0 38 c0 20 0 371 -1 780 l0 742 -572 0 -572 0 0 -2102z"/>
</g>
</svg>
